<mxfile host="app.diagrams.net" modified="2022-08-07T22:25:16.936Z" agent="5.0 (X11; Linux x86_64) AppleWebKit/537.36 (KHTML, like Gecko) Chrome/104.0.0.0 Safari/537.36" etag="psluvzldYxXgusl6i2oY" version="20.2.3" type="github" pages="2">
  <diagram id="gQ827h-WHSjYWyRRX2BJ" name="folder structure">
    <mxGraphModel dx="3378" dy="1474" grid="0" gridSize="10" guides="1" tooltips="1" connect="1" arrows="1" fold="1" page="0" pageScale="1" pageWidth="850" pageHeight="1100" math="0" shadow="0">
      <root>
        <mxCell id="0" />
        <mxCell id="1" parent="0" />
        <mxCell id="S4UoKKTdD5GOehBYi5xj-1" value="&lt;b&gt;app.ts&lt;/b&gt;" style="rounded=1;whiteSpace=wrap;html=1;fillColor=#09555B;strokeColor=#BAC8D3;fontColor=#EEEEEE;sketch=1;" parent="1" vertex="1">
          <mxGeometry x="-87" y="-63" width="120" height="60" as="geometry" />
        </mxCell>
        <mxCell id="S4UoKKTdD5GOehBYi5xj-2" value="Folder structure" style="text;html=1;strokeColor=none;fillColor=none;align=center;verticalAlign=middle;whiteSpace=wrap;rounded=1;fontSize=40;fontColor=#EEEEEE;sketch=1;fontFamily=Architects Daughter;fontSource=https%3A%2F%2Ffonts.googleapis.com%2Fcss%3Ffamily%3DArchitects%2BDaughter;" parent="1" vertex="1">
          <mxGeometry x="-87" y="-176" width="407" height="82" as="geometry" />
        </mxCell>
        <mxCell id="S4UoKKTdD5GOehBYi5xj-6" value="" style="edgeStyle=orthogonalEdgeStyle;rounded=1;orthogonalLoop=1;jettySize=auto;html=1;fontSize=40;entryX=0;entryY=0.5;entryDx=0;entryDy=0;strokeColor=#0B4D6A;sketch=1;curved=1;" parent="1" source="S4UoKKTdD5GOehBYi5xj-3" target="S4UoKKTdD5GOehBYi5xj-5" edge="1">
          <mxGeometry relative="1" as="geometry">
            <Array as="points">
              <mxPoint x="-27" y="149" />
            </Array>
          </mxGeometry>
        </mxCell>
        <mxCell id="S4UoKKTdD5GOehBYi5xj-3" value="&lt;b&gt;src&lt;/b&gt;" style="rounded=1;whiteSpace=wrap;html=1;fillColor=#09555B;strokeColor=#BAC8D3;fontColor=#EEEEEE;sketch=1;" parent="1" vertex="1">
          <mxGeometry x="-87" y="15" width="120" height="60" as="geometry" />
        </mxCell>
        <mxCell id="S4UoKKTdD5GOehBYi5xj-8" value="" style="edgeStyle=orthogonalEdgeStyle;rounded=1;orthogonalLoop=1;jettySize=auto;html=1;fontSize=40;strokeColor=#0B4D6A;sketch=1;curved=1;" parent="1" source="S4UoKKTdD5GOehBYi5xj-5" target="S4UoKKTdD5GOehBYi5xj-7" edge="1">
          <mxGeometry relative="1" as="geometry">
            <Array as="points">
              <mxPoint x="71" y="256" />
            </Array>
          </mxGeometry>
        </mxCell>
        <mxCell id="S4UoKKTdD5GOehBYi5xj-14" value="" style="edgeStyle=orthogonalEdgeStyle;rounded=1;orthogonalLoop=1;jettySize=auto;html=1;fontSize=40;entryX=0;entryY=0.5;entryDx=0;entryDy=0;strokeColor=#0B4D6A;sketch=1;curved=1;" parent="1" source="S4UoKKTdD5GOehBYi5xj-5" target="S4UoKKTdD5GOehBYi5xj-13" edge="1">
          <mxGeometry relative="1" as="geometry" />
        </mxCell>
        <mxCell id="S4UoKKTdD5GOehBYi5xj-20" value="" style="edgeStyle=orthogonalEdgeStyle;rounded=1;orthogonalLoop=1;jettySize=auto;html=1;fontSize=40;entryX=0;entryY=0.5;entryDx=0;entryDy=0;strokeColor=#0B4D6A;sketch=1;curved=1;" parent="1" source="S4UoKKTdD5GOehBYi5xj-5" target="S4UoKKTdD5GOehBYi5xj-19" edge="1">
          <mxGeometry relative="1" as="geometry" />
        </mxCell>
        <mxCell id="S4UoKKTdD5GOehBYi5xj-5" value="&lt;b&gt;Entity&lt;/b&gt;" style="rounded=1;whiteSpace=wrap;html=1;fillColor=#09555B;strokeColor=#BAC8D3;fontColor=#EEEEEE;sketch=1;" parent="1" vertex="1">
          <mxGeometry x="11" y="119" width="120" height="60" as="geometry" />
        </mxCell>
        <mxCell id="S4UoKKTdD5GOehBYi5xj-10" value="" style="edgeStyle=orthogonalEdgeStyle;rounded=1;orthogonalLoop=1;jettySize=auto;html=1;fontSize=40;strokeColor=#0B4D6A;sketch=1;curved=1;" parent="1" source="S4UoKKTdD5GOehBYi5xj-7" target="S4UoKKTdD5GOehBYi5xj-9" edge="1">
          <mxGeometry relative="1" as="geometry">
            <Array as="points">
              <mxPoint x="165" y="337" />
            </Array>
          </mxGeometry>
        </mxCell>
        <mxCell id="S4UoKKTdD5GOehBYi5xj-12" value="" style="edgeStyle=orthogonalEdgeStyle;rounded=1;orthogonalLoop=1;jettySize=auto;html=1;fontSize=40;strokeColor=#0B4D6A;sketch=1;curved=1;" parent="1" source="S4UoKKTdD5GOehBYi5xj-7" target="S4UoKKTdD5GOehBYi5xj-11" edge="1">
          <mxGeometry relative="1" as="geometry">
            <Array as="points">
              <mxPoint x="164" y="398" />
            </Array>
          </mxGeometry>
        </mxCell>
        <mxCell id="S4UoKKTdD5GOehBYi5xj-34" value="" style="edgeStyle=orthogonalEdgeStyle;rounded=1;sketch=1;hachureGap=4;orthogonalLoop=1;jettySize=auto;html=1;fontFamily=Architects Daughter;fontSource=https%3A%2F%2Ffonts.googleapis.com%2Fcss%3Ffamily%3DArchitects%2BDaughter;fontSize=16;endArrow=open;startSize=14;endSize=14;sourcePerimeterSpacing=8;targetPerimeterSpacing=8;strokeColor=#0B4D6A;entryX=-0.008;entryY=0.401;entryDx=0;entryDy=0;entryPerimeter=0;curved=1;" parent="1" source="S4UoKKTdD5GOehBYi5xj-7" target="S4UoKKTdD5GOehBYi5xj-33" edge="1">
          <mxGeometry relative="1" as="geometry">
            <Array as="points">
              <mxPoint x="149" y="461" />
            </Array>
          </mxGeometry>
        </mxCell>
        <mxCell id="S4UoKKTdD5GOehBYi5xj-7" value="&lt;b&gt;Controllers&lt;/b&gt;" style="whiteSpace=wrap;html=1;rounded=1;fillColor=#09555B;strokeColor=#BAC8D3;fontColor=#EEEEEE;sketch=1;" parent="1" vertex="1">
          <mxGeometry x="103" y="224" width="120" height="60" as="geometry" />
        </mxCell>
        <mxCell id="S4UoKKTdD5GOehBYi5xj-9" value="&lt;b&gt;Middlewares&lt;/b&gt;" style="whiteSpace=wrap;html=1;rounded=1;fillColor=#09555B;strokeColor=#BAC8D3;fontColor=#EEEEEE;sketch=1;" parent="1" vertex="1">
          <mxGeometry x="200" y="303" width="120" height="60" as="geometry" />
        </mxCell>
        <mxCell id="S4UoKKTdD5GOehBYi5xj-11" value="index.ts" style="whiteSpace=wrap;html=1;rounded=1;fillColor=#09555B;strokeColor=#BAC8D3;fontColor=#EEEEEE;sketch=1;fontStyle=1" parent="1" vertex="1">
          <mxGeometry x="203" y="370" width="120" height="60" as="geometry" />
        </mxCell>
        <mxCell id="S4UoKKTdD5GOehBYi5xj-16" value="" style="edgeStyle=orthogonalEdgeStyle;rounded=1;orthogonalLoop=1;jettySize=auto;html=1;fontSize=40;entryX=0;entryY=0.5;entryDx=0;entryDy=0;strokeColor=#0B4D6A;sketch=1;curved=1;" parent="1" source="S4UoKKTdD5GOehBYi5xj-13" target="S4UoKKTdD5GOehBYi5xj-15" edge="1">
          <mxGeometry relative="1" as="geometry" />
        </mxCell>
        <mxCell id="S4UoKKTdD5GOehBYi5xj-13" value="&lt;b&gt;Repositories&lt;/b&gt;" style="rounded=1;whiteSpace=wrap;html=1;fillColor=#09555B;strokeColor=#BAC8D3;fontColor=#EEEEEE;sketch=1;" parent="1" vertex="1">
          <mxGeometry x="103" y="897" width="120" height="60" as="geometry" />
        </mxCell>
        <mxCell id="S4UoKKTdD5GOehBYi5xj-18" value="" style="edgeStyle=orthogonalEdgeStyle;rounded=1;orthogonalLoop=1;jettySize=auto;html=1;fontSize=40;strokeColor=#0B4D6A;sketch=1;curved=1;" parent="1" source="S4UoKKTdD5GOehBYi5xj-15" target="S4UoKKTdD5GOehBYi5xj-17" edge="1">
          <mxGeometry relative="1" as="geometry">
            <Array as="points">
              <mxPoint x="280" y="1125" />
            </Array>
          </mxGeometry>
        </mxCell>
        <mxCell id="S4UoKKTdD5GOehBYi5xj-15" value="&lt;b&gt;EntityRepository.ts&lt;/b&gt;" style="rounded=1;whiteSpace=wrap;html=1;fillColor=#09555B;strokeColor=#BAC8D3;fontColor=#EEEEEE;sketch=1;" parent="1" vertex="1">
          <mxGeometry x="185" y="997" width="148" height="60" as="geometry" />
        </mxCell>
        <mxCell id="S4UoKKTdD5GOehBYi5xj-17" value="createEntity();&lt;br&gt;readEntity();&lt;br&gt;listEntity();&lt;br&gt;updateEntity();&lt;br&gt;deleteEntity();&lt;br&gt;..." style="whiteSpace=wrap;html=1;rounded=1;align=left;spacing=10;verticalAlign=top;fillColor=#09555B;strokeColor=#BAC8D3;fontColor=#EEEEEE;sketch=1;fontStyle=1" parent="1" vertex="1">
          <mxGeometry x="296" y="1072" width="96" height="113" as="geometry" />
        </mxCell>
        <mxCell id="S4UoKKTdD5GOehBYi5xj-22" value="" style="edgeStyle=orthogonalEdgeStyle;rounded=1;orthogonalLoop=1;jettySize=auto;html=1;fontSize=40;entryX=0;entryY=0.5;entryDx=0;entryDy=0;strokeColor=#0B4D6A;sketch=1;curved=1;" parent="1" source="S4UoKKTdD5GOehBYi5xj-19" target="S4UoKKTdD5GOehBYi5xj-21" edge="1">
          <mxGeometry relative="1" as="geometry" />
        </mxCell>
        <mxCell id="S4UoKKTdD5GOehBYi5xj-19" value="Services" style="whiteSpace=wrap;html=1;rounded=1;fillColor=#09555B;strokeColor=#BAC8D3;fontColor=#EEEEEE;sketch=1;fontStyle=1" parent="1" vertex="1">
          <mxGeometry x="103" y="1141" width="120" height="60" as="geometry" />
        </mxCell>
        <mxCell id="S4UoKKTdD5GOehBYi5xj-24" value="" style="edgeStyle=orthogonalEdgeStyle;rounded=1;orthogonalLoop=1;jettySize=auto;html=1;fontSize=40;strokeColor=#0B4D6A;sketch=1;curved=1;" parent="1" source="S4UoKKTdD5GOehBYi5xj-21" target="S4UoKKTdD5GOehBYi5xj-23" edge="1">
          <mxGeometry relative="1" as="geometry">
            <Array as="points">
              <mxPoint x="249" y="1442" />
            </Array>
          </mxGeometry>
        </mxCell>
        <mxCell id="S4UoKKTdD5GOehBYi5xj-27" value="" style="edgeStyle=orthogonalEdgeStyle;rounded=1;orthogonalLoop=1;jettySize=auto;html=1;fontSize=40;strokeColor=#0B4D6A;sketch=1;curved=1;" parent="1" source="S4UoKKTdD5GOehBYi5xj-21" target="S4UoKKTdD5GOehBYi5xj-26" edge="1">
          <mxGeometry relative="1" as="geometry">
            <Array as="points">
              <mxPoint x="249" y="1526" />
            </Array>
          </mxGeometry>
        </mxCell>
        <mxCell id="S4UoKKTdD5GOehBYi5xj-21" value="SES" style="whiteSpace=wrap;html=1;rounded=1;align=center;fillColor=#09555B;strokeColor=#BAC8D3;fontColor=#EEEEEE;sketch=1;fontStyle=1" parent="1" vertex="1">
          <mxGeometry x="185" y="1279" width="120" height="60" as="geometry" />
        </mxCell>
        <mxCell id="S4UoKKTdD5GOehBYi5xj-23" value="sendEmailService.ts" style="whiteSpace=wrap;html=1;rounded=1;fillColor=#09555B;strokeColor=#BAC8D3;fontColor=#EEEEEE;sketch=1;fontStyle=1" parent="1" vertex="1">
          <mxGeometry x="284" y="1409" width="132" height="60" as="geometry" />
        </mxCell>
        <mxCell id="S4UoKKTdD5GOehBYi5xj-26" value="bulkEmailService.ts" style="whiteSpace=wrap;html=1;rounded=1;fillColor=#09555B;strokeColor=#BAC8D3;fontColor=#EEEEEE;sketch=1;fontStyle=1" parent="1" vertex="1">
          <mxGeometry x="284" y="1495" width="120" height="60" as="geometry" />
        </mxCell>
        <mxCell id="aaAQEW5LkF1bEmMfdmzD-2" value="" style="edgeStyle=orthogonalEdgeStyle;rounded=1;orthogonalLoop=1;jettySize=auto;html=1;sketch=1;curved=1;strokeColor=#0B4D6A;" parent="1" source="S4UoKKTdD5GOehBYi5xj-33" target="aaAQEW5LkF1bEmMfdmzD-1" edge="1">
          <mxGeometry relative="1" as="geometry">
            <Array as="points">
              <mxPoint x="261" y="546" />
            </Array>
          </mxGeometry>
        </mxCell>
        <mxCell id="aaAQEW5LkF1bEmMfdmzD-4" value="" style="edgeStyle=orthogonalEdgeStyle;rounded=1;orthogonalLoop=1;jettySize=auto;html=1;sketch=1;curved=1;strokeColor=#0B4D6A;" parent="1" source="S4UoKKTdD5GOehBYi5xj-33" target="aaAQEW5LkF1bEmMfdmzD-3" edge="1">
          <mxGeometry relative="1" as="geometry">
            <Array as="points">
              <mxPoint x="261" y="610" />
            </Array>
          </mxGeometry>
        </mxCell>
        <mxCell id="aaAQEW5LkF1bEmMfdmzD-6" value="" style="edgeStyle=orthogonalEdgeStyle;rounded=1;orthogonalLoop=1;jettySize=auto;html=1;sketch=1;curved=1;strokeColor=#0B4D6A;" parent="1" source="S4UoKKTdD5GOehBYi5xj-33" target="aaAQEW5LkF1bEmMfdmzD-5" edge="1">
          <mxGeometry relative="1" as="geometry">
            <Array as="points">
              <mxPoint x="261" y="672" />
            </Array>
          </mxGeometry>
        </mxCell>
        <mxCell id="aaAQEW5LkF1bEmMfdmzD-8" value="" style="edgeStyle=orthogonalEdgeStyle;rounded=1;orthogonalLoop=1;jettySize=auto;html=1;sketch=1;curved=1;strokeColor=#0B4D6A;" parent="1" source="S4UoKKTdD5GOehBYi5xj-33" target="aaAQEW5LkF1bEmMfdmzD-7" edge="1">
          <mxGeometry relative="1" as="geometry">
            <Array as="points">
              <mxPoint x="260" y="732" />
            </Array>
          </mxGeometry>
        </mxCell>
        <mxCell id="aaAQEW5LkF1bEmMfdmzD-11" style="edgeStyle=orthogonalEdgeStyle;curved=1;rounded=0;sketch=1;hachureGap=4;orthogonalLoop=1;jettySize=auto;html=1;entryX=0;entryY=0.5;entryDx=0;entryDy=0;fontFamily=Architects Daughter;fontSource=https%3A%2F%2Ffonts.googleapis.com%2Fcss%3Ffamily%3DArchitects%2BDaughter;fontSize=16;endArrow=classicThin;startSize=14;endSize=14;sourcePerimeterSpacing=8;targetPerimeterSpacing=8;strokeColor=#0B4D6A;endFill=0;" parent="1" source="S4UoKKTdD5GOehBYi5xj-33" target="aaAQEW5LkF1bEmMfdmzD-9" edge="1">
          <mxGeometry relative="1" as="geometry">
            <Array as="points">
              <mxPoint x="263" y="801" />
            </Array>
          </mxGeometry>
        </mxCell>
        <mxCell id="aaAQEW5LkF1bEmMfdmzD-13" value="" style="edgeStyle=orthogonalEdgeStyle;curved=1;rounded=0;sketch=1;hachureGap=4;orthogonalLoop=1;jettySize=auto;html=1;fontFamily=Architects Daughter;fontSource=https%3A%2F%2Ffonts.googleapis.com%2Fcss%3Ffamily%3DArchitects%2BDaughter;fontSize=16;endArrow=classicThin;endFill=0;startSize=14;endSize=14;sourcePerimeterSpacing=8;targetPerimeterSpacing=8;strokeColor=#0B4D6A;entryX=-0.001;entryY=0.338;entryDx=0;entryDy=0;entryPerimeter=0;" parent="1" source="S4UoKKTdD5GOehBYi5xj-33" target="aaAQEW5LkF1bEmMfdmzD-12" edge="1">
          <mxGeometry relative="1" as="geometry">
            <Array as="points">
              <mxPoint x="260" y="854" />
            </Array>
          </mxGeometry>
        </mxCell>
        <mxCell id="S4UoKKTdD5GOehBYi5xj-33" value="Routers" style="whiteSpace=wrap;html=1;fillColor=#09555B;strokeColor=#BAC8D3;fontColor=#EEEEEE;rounded=1;sketch=1;fontStyle=1" parent="1" vertex="1">
          <mxGeometry x="203" y="437" width="120" height="60" as="geometry" />
        </mxCell>
        <mxCell id="aaAQEW5LkF1bEmMfdmzD-1" value="index.ts" style="whiteSpace=wrap;html=1;fillColor=#09555B;strokeColor=#BAC8D3;fontColor=#EEEEEE;rounded=1;sketch=1;fontStyle=1" parent="1" vertex="1">
          <mxGeometry x="276" y="516" width="120" height="60" as="geometry" />
        </mxCell>
        <mxCell id="aaAQEW5LkF1bEmMfdmzD-3" value="Create.ts" style="whiteSpace=wrap;html=1;fillColor=#09555B;strokeColor=#BAC8D3;fontColor=#EEEEEE;rounded=1;sketch=1;fontStyle=1" parent="1" vertex="1">
          <mxGeometry x="276" y="580" width="120" height="60" as="geometry" />
        </mxCell>
        <mxCell id="aaAQEW5LkF1bEmMfdmzD-5" value="Read.ts" style="whiteSpace=wrap;html=1;fillColor=#09555B;strokeColor=#BAC8D3;fontColor=#EEEEEE;rounded=1;sketch=1;fontStyle=1" parent="1" vertex="1">
          <mxGeometry x="276" y="644" width="120" height="60" as="geometry" />
        </mxCell>
        <mxCell id="aaAQEW5LkF1bEmMfdmzD-7" value="List.ts" style="whiteSpace=wrap;html=1;fillColor=#09555B;strokeColor=#BAC8D3;fontColor=#EEEEEE;rounded=1;sketch=1;fontStyle=1" parent="1" vertex="1">
          <mxGeometry x="276" y="707" width="120" height="60" as="geometry" />
        </mxCell>
        <mxCell id="aaAQEW5LkF1bEmMfdmzD-9" value="Update.ts" style="whiteSpace=wrap;html=1;fillColor=#09555B;strokeColor=#BAC8D3;fontColor=#EEEEEE;rounded=1;sketch=1;fontStyle=1" parent="1" vertex="1">
          <mxGeometry x="276" y="771" width="120" height="60" as="geometry" />
        </mxCell>
        <mxCell id="aaAQEW5LkF1bEmMfdmzD-12" value="Delete.ts" style="whiteSpace=wrap;html=1;fillColor=#09555B;strokeColor=#BAC8D3;fontColor=#EEEEEE;rounded=1;sketch=1;fontStyle=1" parent="1" vertex="1">
          <mxGeometry x="276" y="834" width="120" height="60" as="geometry" />
        </mxCell>
        <mxCell id="4fV856h1BNFKR1fBRMGr-6" value="" style="edgeStyle=orthogonalEdgeStyle;rounded=0;orthogonalLoop=1;jettySize=auto;html=1;" parent="1" source="S4UoKKTdD5GOehBYi5xj-5" target="4fV856h1BNFKR1fBRMGr-5" edge="1">
          <mxGeometry relative="1" as="geometry">
            <mxPoint x="331" y="149" as="sourcePoint" />
            <Array as="points">
              <mxPoint x="172" y="149" />
              <mxPoint x="172" y="54" />
              <mxPoint x="247" y="54" />
            </Array>
          </mxGeometry>
        </mxCell>
        <mxCell id="4fV856h1BNFKR1fBRMGr-9" value="" style="edgeStyle=orthogonalEdgeStyle;rounded=0;orthogonalLoop=1;jettySize=auto;html=1;" parent="1" target="4fV856h1BNFKR1fBRMGr-8" edge="1">
          <mxGeometry relative="1" as="geometry">
            <mxPoint x="331" y="149" as="sourcePoint" />
            <Array as="points">
              <mxPoint x="354" y="149" />
              <mxPoint x="354" y="218" />
            </Array>
          </mxGeometry>
        </mxCell>
        <mxCell id="4fV856h1BNFKR1fBRMGr-13" value="" style="edgeStyle=orthogonalEdgeStyle;rounded=0;orthogonalLoop=1;jettySize=auto;html=1;fontSize=12;" parent="1" target="4fV856h1BNFKR1fBRMGr-12" edge="1">
          <mxGeometry relative="1" as="geometry">
            <mxPoint x="331" y="149" as="sourcePoint" />
            <Array as="points">
              <mxPoint x="351" y="149" />
              <mxPoint x="351" y="427" />
              <mxPoint x="486" y="427" />
            </Array>
          </mxGeometry>
        </mxCell>
        <mxCell id="4fV856h1BNFKR1fBRMGr-15" value="" style="edgeStyle=orthogonalEdgeStyle;rounded=0;orthogonalLoop=1;jettySize=auto;html=1;fontSize=16;" parent="1" source="4fV856h1BNFKR1fBRMGr-3" target="4fV856h1BNFKR1fBRMGr-14" edge="1">
          <mxGeometry relative="1" as="geometry" />
        </mxCell>
        <mxCell id="4fV856h1BNFKR1fBRMGr-3" value="Controller" style="whiteSpace=wrap;html=1;fillColor=#09555B;strokeColor=#BAC8D3;fontColor=#EEEEEE;rounded=1;sketch=1;" parent="1" vertex="1">
          <mxGeometry x="426" y="344" width="120" height="60" as="geometry" />
        </mxCell>
        <mxCell id="4fV856h1BNFKR1fBRMGr-30" value="" style="edgeStyle=orthogonalEdgeStyle;rounded=0;orthogonalLoop=1;jettySize=auto;html=1;fontSize=16;" parent="1" source="4fV856h1BNFKR1fBRMGr-5" target="4fV856h1BNFKR1fBRMGr-29" edge="1">
          <mxGeometry relative="1" as="geometry">
            <Array as="points">
              <mxPoint x="273" y="-78" />
            </Array>
          </mxGeometry>
        </mxCell>
        <mxCell id="4fV856h1BNFKR1fBRMGr-32" value="" style="edgeStyle=orthogonalEdgeStyle;rounded=0;orthogonalLoop=1;jettySize=auto;html=1;fontSize=16;" parent="1" source="4fV856h1BNFKR1fBRMGr-5" target="4fV856h1BNFKR1fBRMGr-31" edge="1">
          <mxGeometry relative="1" as="geometry" />
        </mxCell>
        <mxCell id="4fV856h1BNFKR1fBRMGr-5" value="DTO" style="whiteSpace=wrap;html=1;fillColor=#09555B;strokeColor=#BAC8D3;fontColor=#EEEEEE;rounded=1;sketch=1;" parent="1" vertex="1">
          <mxGeometry x="213" y="47" width="120" height="60" as="geometry" />
        </mxCell>
        <mxCell id="4fV856h1BNFKR1fBRMGr-11" value="" style="edgeStyle=orthogonalEdgeStyle;rounded=0;orthogonalLoop=1;jettySize=auto;html=1;entryX=0;entryY=0.25;entryDx=0;entryDy=0;" parent="1" source="4fV856h1BNFKR1fBRMGr-8" target="4fV856h1BNFKR1fBRMGr-10" edge="1">
          <mxGeometry relative="1" as="geometry">
            <Array as="points">
              <mxPoint x="573" y="239" />
              <mxPoint x="573" y="185" />
              <mxPoint x="575" y="185" />
              <mxPoint x="575" y="171" />
            </Array>
          </mxGeometry>
        </mxCell>
        <mxCell id="4fV856h1BNFKR1fBRMGr-8" value="index.ts" style="whiteSpace=wrap;html=1;fillColor=#09555B;strokeColor=#BAC8D3;fontColor=#EEEEEE;rounded=1;sketch=1;" parent="1" vertex="1">
          <mxGeometry x="436" y="205" width="120" height="60" as="geometry" />
        </mxCell>
        <mxCell id="4fV856h1BNFKR1fBRMGr-10" value="&lt;ul style=&quot;font-size: 16px;&quot;&gt;&lt;li&gt;instanciate services, workers etc&lt;/li&gt;&lt;li&gt;instantiate the useCase passing the services, workers, repositories etc&lt;/li&gt;&lt;li&gt;instantiate controller passing the useCase&lt;/li&gt;&lt;li&gt;export useCase and controller&lt;/li&gt;&lt;/ul&gt;" style="whiteSpace=wrap;html=1;fillColor=#09555B;strokeColor=#BAC8D3;fontColor=#EEEEEE;rounded=1;sketch=1;align=left;glass=0;shadow=0;spacingTop=10;spacing=10;verticalAlign=top;" parent="1" vertex="1">
          <mxGeometry x="595" y="136" width="591" height="141.5" as="geometry" />
        </mxCell>
        <mxCell id="4fV856h1BNFKR1fBRMGr-24" value="" style="edgeStyle=orthogonalEdgeStyle;rounded=0;orthogonalLoop=1;jettySize=auto;html=1;fontSize=16;" parent="1" source="4fV856h1BNFKR1fBRMGr-12" target="4fV856h1BNFKR1fBRMGr-23" edge="1">
          <mxGeometry relative="1" as="geometry" />
        </mxCell>
        <mxCell id="4fV856h1BNFKR1fBRMGr-26" value="" style="edgeStyle=orthogonalEdgeStyle;rounded=0;orthogonalLoop=1;jettySize=auto;html=1;fontSize=16;" parent="1" source="4fV856h1BNFKR1fBRMGr-12" target="4fV856h1BNFKR1fBRMGr-25" edge="1">
          <mxGeometry relative="1" as="geometry">
            <Array as="points">
              <mxPoint x="573" y="472" />
              <mxPoint x="573" y="539" />
            </Array>
          </mxGeometry>
        </mxCell>
        <mxCell id="4fV856h1BNFKR1fBRMGr-12" value="useCase" style="whiteSpace=wrap;html=1;fillColor=#09555B;strokeColor=#BAC8D3;fontColor=#EEEEEE;rounded=1;sketch=1;" parent="1" vertex="1">
          <mxGeometry x="426" y="442" width="120" height="60" as="geometry" />
        </mxCell>
        <mxCell id="4fV856h1BNFKR1fBRMGr-14" value="index.ts" style="whiteSpace=wrap;html=1;fillColor=#09555B;strokeColor=#BAC8D3;fontColor=#EEEEEE;rounded=1;sketch=1;" parent="1" vertex="1">
          <mxGeometry x="595" y="344" width="120" height="60" as="geometry" />
        </mxCell>
        <mxCell id="4fV856h1BNFKR1fBRMGr-20" value="" style="endArrow=classic;html=1;rounded=0;fontSize=16;entryX=0;entryY=0.5;entryDx=0;entryDy=0;" parent="1" target="4fV856h1BNFKR1fBRMGr-3" edge="1">
          <mxGeometry width="50" height="50" relative="1" as="geometry">
            <mxPoint x="336" y="149" as="sourcePoint" />
            <mxPoint x="746" y="209" as="targetPoint" />
            <Array as="points">
              <mxPoint x="356" y="147" />
              <mxPoint x="348" y="385" />
            </Array>
          </mxGeometry>
        </mxCell>
        <mxCell id="4fV856h1BNFKR1fBRMGr-21" value="&lt;b&gt;Create&lt;/b&gt;" style="rounded=1;whiteSpace=wrap;html=1;fillColor=#09555B;strokeColor=#BAC8D3;fontColor=#EEEEEE;sketch=1;" parent="1" vertex="1">
          <mxGeometry x="215" y="119" width="120" height="60" as="geometry" />
        </mxCell>
        <mxCell id="4fV856h1BNFKR1fBRMGr-22" value="" style="edgeStyle=orthogonalEdgeStyle;rounded=0;orthogonalLoop=1;jettySize=auto;html=1;fontSize=16;endArrow=none;" parent="1" source="S4UoKKTdD5GOehBYi5xj-5" target="4fV856h1BNFKR1fBRMGr-21" edge="1">
          <mxGeometry relative="1" as="geometry">
            <mxPoint x="335.2352941176473" y="149" as="targetPoint" />
            <mxPoint x="131" y="149" as="sourcePoint" />
          </mxGeometry>
        </mxCell>
        <mxCell id="4fV856h1BNFKR1fBRMGr-23" value="index.ts" style="whiteSpace=wrap;html=1;fillColor=#09555B;strokeColor=#BAC8D3;fontColor=#EEEEEE;rounded=1;sketch=1;" parent="1" vertex="1">
          <mxGeometry x="595" y="442" width="120" height="60" as="geometry" />
        </mxCell>
        <mxCell id="4fV856h1BNFKR1fBRMGr-25" value="middlewares" style="whiteSpace=wrap;html=1;fillColor=#09555B;strokeColor=#BAC8D3;fontColor=#EEEEEE;rounded=1;sketch=1;" parent="1" vertex="1">
          <mxGeometry x="595" y="509" width="120" height="60" as="geometry" />
        </mxCell>
        <mxCell id="4fV856h1BNFKR1fBRMGr-29" value="createDTO.ts" style="whiteSpace=wrap;html=1;fillColor=#09555B;strokeColor=#BAC8D3;fontColor=#EEEEEE;rounded=1;sketch=1;" parent="1" vertex="1">
          <mxGeometry x="384" y="-101" width="120" height="60" as="geometry" />
        </mxCell>
        <mxCell id="4fV856h1BNFKR1fBRMGr-31" value="updateDTO.ts" style="whiteSpace=wrap;html=1;fillColor=#09555B;strokeColor=#BAC8D3;fontColor=#EEEEEE;rounded=1;sketch=1;" parent="1" vertex="1">
          <mxGeometry x="380" y="-33" width="120" height="60" as="geometry" />
        </mxCell>
        <mxCell id="wIqFN5VZQI76kB4jCGSw-1" style="edgeStyle=orthogonalEdgeStyle;curved=1;orthogonalLoop=1;jettySize=auto;html=1;fontFamily=Architects Daughter;fontSource=https%3A%2F%2Ffonts.googleapis.com%2Fcss%3Ffamily%3DArchitects%2BDaughter;strokeColor=#E6D0DE;" edge="1" parent="1" source="dD3Mr5d20u4FOekaNQPi-1" target="dD3Mr5d20u4FOekaNQPi-4">
          <mxGeometry relative="1" as="geometry" />
        </mxCell>
        <mxCell id="wIqFN5VZQI76kB4jCGSw-3" value="" style="edgeStyle=orthogonalEdgeStyle;curved=1;orthogonalLoop=1;jettySize=auto;html=1;fontFamily=Architects Daughter;fontSource=https%3A%2F%2Ffonts.googleapis.com%2Fcss%3Ffamily%3DArchitects%2BDaughter;strokeColor=#E6D0DE;startArrow=none;" edge="1" parent="1" source="dD3Mr5d20u4FOekaNQPi-4" target="wIqFN5VZQI76kB4jCGSw-2">
          <mxGeometry relative="1" as="geometry" />
        </mxCell>
        <mxCell id="wIqFN5VZQI76kB4jCGSw-5" value="" style="edgeStyle=orthogonalEdgeStyle;curved=1;orthogonalLoop=1;jettySize=auto;html=1;fontFamily=Architects Daughter;fontSource=https%3A%2F%2Ffonts.googleapis.com%2Fcss%3Ffamily%3DArchitects%2BDaughter;strokeColor=#E6D0DE;startArrow=none;" edge="1" parent="1" source="wIqFN5VZQI76kB4jCGSw-2" target="wIqFN5VZQI76kB4jCGSw-4">
          <mxGeometry relative="1" as="geometry" />
        </mxCell>
        <mxCell id="dD3Mr5d20u4FOekaNQPi-1" value="&lt;span&gt;src&lt;/span&gt;" style="rounded=1;whiteSpace=wrap;html=1;fillColor=#CC00CC;strokeColor=#BAC8D3;fontColor=#EEEEEE;sketch=1;fontStyle=1" vertex="1" parent="1">
          <mxGeometry x="-1195" y="-69" width="120" height="60" as="geometry" />
        </mxCell>
        <mxCell id="dD3Mr5d20u4FOekaNQPi-7" value="" style="edgeStyle=orthogonalEdgeStyle;curved=1;orthogonalLoop=1;jettySize=auto;html=1;strokeColor=#E6D0DE;" edge="1" parent="1" source="dD3Mr5d20u4FOekaNQPi-4" target="dD3Mr5d20u4FOekaNQPi-6">
          <mxGeometry relative="1" as="geometry" />
        </mxCell>
        <mxCell id="dD3Mr5d20u4FOekaNQPi-9" value="" style="edgeStyle=orthogonalEdgeStyle;curved=1;orthogonalLoop=1;jettySize=auto;html=1;strokeColor=#E6D0DE;" edge="1" parent="1" source="dD3Mr5d20u4FOekaNQPi-4" target="dD3Mr5d20u4FOekaNQPi-8">
          <mxGeometry relative="1" as="geometry" />
        </mxCell>
        <mxCell id="dD3Mr5d20u4FOekaNQPi-11" value="" style="edgeStyle=orthogonalEdgeStyle;curved=1;orthogonalLoop=1;jettySize=auto;html=1;strokeColor=#E6D0DE;" edge="1" parent="1" source="dD3Mr5d20u4FOekaNQPi-4" target="dD3Mr5d20u4FOekaNQPi-10">
          <mxGeometry relative="1" as="geometry" />
        </mxCell>
        <mxCell id="dD3Mr5d20u4FOekaNQPi-13" value="" style="edgeStyle=orthogonalEdgeStyle;curved=1;orthogonalLoop=1;jettySize=auto;html=1;strokeColor=#E6D0DE;" edge="1" parent="1" source="dD3Mr5d20u4FOekaNQPi-4" target="dD3Mr5d20u4FOekaNQPi-12">
          <mxGeometry relative="1" as="geometry" />
        </mxCell>
        <mxCell id="dD3Mr5d20u4FOekaNQPi-15" value="" style="edgeStyle=orthogonalEdgeStyle;curved=1;orthogonalLoop=1;jettySize=auto;html=1;strokeColor=#E6D0DE;" edge="1" parent="1" source="dD3Mr5d20u4FOekaNQPi-4" target="dD3Mr5d20u4FOekaNQPi-14">
          <mxGeometry relative="1" as="geometry" />
        </mxCell>
        <mxCell id="wIqFN5VZQI76kB4jCGSw-10" value="" style="edgeStyle=orthogonalEdgeStyle;curved=1;orthogonalLoop=1;jettySize=auto;html=1;fontFamily=Architects Daughter;fontSource=https%3A%2F%2Ffonts.googleapis.com%2Fcss%3Ffamily%3DArchitects%2BDaughter;strokeColor=#E6D0DE;" edge="1" parent="1" source="dD3Mr5d20u4FOekaNQPi-4" target="wIqFN5VZQI76kB4jCGSw-9">
          <mxGeometry relative="1" as="geometry" />
        </mxCell>
        <mxCell id="dD3Mr5d20u4FOekaNQPi-19" value="" style="edgeStyle=orthogonalEdgeStyle;curved=1;orthogonalLoop=1;jettySize=auto;html=1;strokeColor=#E6D0DE;" edge="1" parent="1" source="dD3Mr5d20u4FOekaNQPi-8" target="dD3Mr5d20u4FOekaNQPi-18">
          <mxGeometry relative="1" as="geometry" />
        </mxCell>
        <mxCell id="dD3Mr5d20u4FOekaNQPi-37" style="edgeStyle=orthogonalEdgeStyle;curved=1;orthogonalLoop=1;jettySize=auto;html=1;fontFamily=Architects Daughter;fontSource=https%3A%2F%2Ffonts.googleapis.com%2Fcss%3Ffamily%3DArchitects%2BDaughter;strokeColor=#E6D0DE;entryX=0;entryY=0.75;entryDx=0;entryDy=0;" edge="1" parent="1" source="dD3Mr5d20u4FOekaNQPi-8" target="dD3Mr5d20u4FOekaNQPi-14">
          <mxGeometry relative="1" as="geometry">
            <mxPoint x="-896.4000000000001" y="361.79999999999995" as="targetPoint" />
            <Array as="points">
              <mxPoint x="-823" y="241" />
              <mxPoint x="-823" y="487" />
            </Array>
          </mxGeometry>
        </mxCell>
        <mxCell id="wIqFN5VZQI76kB4jCGSw-25" value="make use of" style="edgeLabel;html=1;align=center;verticalAlign=middle;resizable=0;points=[];fontFamily=Architects Daughter;" vertex="1" connectable="0" parent="dD3Mr5d20u4FOekaNQPi-37">
          <mxGeometry x="0.5925" y="18" relative="1" as="geometry">
            <mxPoint as="offset" />
          </mxGeometry>
        </mxCell>
        <mxCell id="dD3Mr5d20u4FOekaNQPi-40" style="edgeStyle=orthogonalEdgeStyle;curved=1;orthogonalLoop=1;jettySize=auto;html=1;entryX=0.002;entryY=0.62;entryDx=0;entryDy=0;entryPerimeter=0;fontFamily=Architects Daughter;fontSource=https%3A%2F%2Ffonts.googleapis.com%2Fcss%3Ffamily%3DArchitects%2BDaughter;strokeColor=#E6D0DE;exitX=0;exitY=0.5;exitDx=0;exitDy=0;" edge="1" parent="1" source="dD3Mr5d20u4FOekaNQPi-8" target="dD3Mr5d20u4FOekaNQPi-12">
          <mxGeometry relative="1" as="geometry" />
        </mxCell>
        <mxCell id="wIqFN5VZQI76kB4jCGSw-24" value="make us of" style="edgeLabel;html=1;align=center;verticalAlign=middle;resizable=0;points=[];fontFamily=Architects Daughter;" vertex="1" connectable="0" parent="dD3Mr5d20u4FOekaNQPi-40">
          <mxGeometry x="0.1464" y="13" relative="1" as="geometry">
            <mxPoint as="offset" />
          </mxGeometry>
        </mxCell>
        <mxCell id="dD3Mr5d20u4FOekaNQPi-41" style="edgeStyle=orthogonalEdgeStyle;curved=1;orthogonalLoop=1;jettySize=auto;html=1;entryX=-0.002;entryY=0.657;entryDx=0;entryDy=0;entryPerimeter=0;fontFamily=Architects Daughter;fontSource=https%3A%2F%2Ffonts.googleapis.com%2Fcss%3Ffamily%3DArchitects%2BDaughter;strokeColor=#E6D0DE;exitX=0;exitY=0.5;exitDx=0;exitDy=0;" edge="1" parent="1" source="dD3Mr5d20u4FOekaNQPi-8" target="dD3Mr5d20u4FOekaNQPi-10">
          <mxGeometry relative="1" as="geometry" />
        </mxCell>
        <mxCell id="wIqFN5VZQI76kB4jCGSw-23" value="make us of" style="edgeLabel;html=1;align=center;verticalAlign=middle;resizable=0;points=[];fontFamily=Architects Daughter;" vertex="1" connectable="0" parent="dD3Mr5d20u4FOekaNQPi-41">
          <mxGeometry x="0.1482" y="10" relative="1" as="geometry">
            <mxPoint as="offset" />
          </mxGeometry>
        </mxCell>
        <mxCell id="dD3Mr5d20u4FOekaNQPi-8" value="UseCases" style="whiteSpace=wrap;html=1;fillColor=#990099;strokeColor=#BAC8D3;fontColor=#EEEEEE;rounded=1;sketch=1;fontStyle=1;" vertex="1" parent="1">
          <mxGeometry x="-792" y="211" width="120" height="60" as="geometry" />
        </mxCell>
        <mxCell id="dD3Mr5d20u4FOekaNQPi-21" value="" style="edgeStyle=orthogonalEdgeStyle;curved=1;orthogonalLoop=1;jettySize=auto;html=1;strokeColor=#E6D0DE;" edge="1" parent="1" source="dD3Mr5d20u4FOekaNQPi-10" target="dD3Mr5d20u4FOekaNQPi-20">
          <mxGeometry relative="1" as="geometry" />
        </mxCell>
        <mxCell id="dD3Mr5d20u4FOekaNQPi-10" value="DTOs" style="whiteSpace=wrap;html=1;fillColor=#990099;strokeColor=#BAC8D3;fontColor=#EEEEEE;rounded=1;sketch=1;fontStyle=1;" vertex="1" parent="1">
          <mxGeometry x="-757" y="288" width="120" height="60" as="geometry" />
        </mxCell>
        <mxCell id="dD3Mr5d20u4FOekaNQPi-25" style="edgeStyle=orthogonalEdgeStyle;curved=1;orthogonalLoop=1;jettySize=auto;html=1;strokeColor=#E6D0DE;" edge="1" parent="1" source="dD3Mr5d20u4FOekaNQPi-12" target="dD3Mr5d20u4FOekaNQPi-24">
          <mxGeometry relative="1" as="geometry" />
        </mxCell>
        <mxCell id="wIqFN5VZQI76kB4jCGSw-26" style="edgeStyle=orthogonalEdgeStyle;curved=1;orthogonalLoop=1;jettySize=auto;html=1;entryX=0;entryY=0.5;entryDx=0;entryDy=0;fontFamily=Architects Daughter;fontSource=https%3A%2F%2Ffonts.googleapis.com%2Fcss%3Ffamily%3DArchitects%2BDaughter;strokeColor=#E6D0DE;exitX=0;exitY=0.25;exitDx=0;exitDy=0;" edge="1" parent="1" source="dD3Mr5d20u4FOekaNQPi-12" target="dD3Mr5d20u4FOekaNQPi-14">
          <mxGeometry relative="1" as="geometry" />
        </mxCell>
        <mxCell id="wIqFN5VZQI76kB4jCGSw-27" value="make use of" style="edgeLabel;html=1;align=center;verticalAlign=middle;resizable=0;points=[];fontFamily=Architects Daughter;" vertex="1" connectable="0" parent="wIqFN5VZQI76kB4jCGSw-26">
          <mxGeometry x="-0.1226" y="2" relative="1" as="geometry">
            <mxPoint as="offset" />
          </mxGeometry>
        </mxCell>
        <mxCell id="dD3Mr5d20u4FOekaNQPi-12" value="data-access&lt;br&gt;/&lt;br&gt;repositories" style="whiteSpace=wrap;html=1;fillColor=#990099;strokeColor=#BAC8D3;fontColor=#EEEEEE;rounded=1;sketch=1;fontStyle=1;" vertex="1" parent="1">
          <mxGeometry x="-744" y="363" width="120" height="60" as="geometry" />
        </mxCell>
        <mxCell id="dD3Mr5d20u4FOekaNQPi-27" value="" style="edgeStyle=orthogonalEdgeStyle;curved=1;orthogonalLoop=1;jettySize=auto;html=1;strokeColor=#E6D0DE;" edge="1" parent="1" source="dD3Mr5d20u4FOekaNQPi-14" target="dD3Mr5d20u4FOekaNQPi-26">
          <mxGeometry relative="1" as="geometry" />
        </mxCell>
        <mxCell id="dD3Mr5d20u4FOekaNQPi-14" value="Entity&lt;br&gt;domain&lt;br&gt;business Rules" style="whiteSpace=wrap;html=1;fillColor=#990099;strokeColor=#BAC8D3;fontColor=#EEEEEE;rounded=1;sketch=1;fontStyle=1;" vertex="1" parent="1">
          <mxGeometry x="-689" y="442" width="120" height="60" as="geometry" />
        </mxCell>
        <mxCell id="dD3Mr5d20u4FOekaNQPi-17" value="" style="edgeStyle=orthogonalEdgeStyle;curved=1;orthogonalLoop=1;jettySize=auto;html=1;strokeColor=#E6D0DE;" edge="1" parent="1" source="dD3Mr5d20u4FOekaNQPi-6" target="dD3Mr5d20u4FOekaNQPi-16">
          <mxGeometry relative="1" as="geometry" />
        </mxCell>
        <mxCell id="dD3Mr5d20u4FOekaNQPi-39" style="edgeStyle=orthogonalEdgeStyle;curved=1;orthogonalLoop=1;jettySize=auto;html=1;entryX=0;entryY=0.75;entryDx=0;entryDy=0;fontFamily=Architects Daughter;fontSource=https%3A%2F%2Ffonts.googleapis.com%2Fcss%3Ffamily%3DArchitects%2BDaughter;strokeColor=#E6D0DE;exitX=0;exitY=0.5;exitDx=0;exitDy=0;" edge="1" parent="1" source="dD3Mr5d20u4FOekaNQPi-6" target="dD3Mr5d20u4FOekaNQPi-8">
          <mxGeometry relative="1" as="geometry" />
        </mxCell>
        <mxCell id="wIqFN5VZQI76kB4jCGSw-22" value="make use of" style="edgeLabel;html=1;align=center;verticalAlign=middle;resizable=0;points=[];fontFamily=Architects Daughter;" vertex="1" connectable="0" parent="dD3Mr5d20u4FOekaNQPi-39">
          <mxGeometry x="0.0084" y="5" relative="1" as="geometry">
            <mxPoint as="offset" />
          </mxGeometry>
        </mxCell>
        <mxCell id="wIqFN5VZQI76kB4jCGSw-36" value="" style="edgeStyle=orthogonalEdgeStyle;curved=1;orthogonalLoop=1;jettySize=auto;html=1;fontFamily=Architects Daughter;fontSource=https%3A%2F%2Ffonts.googleapis.com%2Fcss%3Ffamily%3DArchitects%2BDaughter;strokeColor=#E6D0DE;" edge="1" parent="1" source="dD3Mr5d20u4FOekaNQPi-6" target="wIqFN5VZQI76kB4jCGSw-35">
          <mxGeometry relative="1" as="geometry" />
        </mxCell>
        <mxCell id="dD3Mr5d20u4FOekaNQPi-6" value="Controllers" style="whiteSpace=wrap;html=1;fillColor=#990099;strokeColor=#BAC8D3;fontColor=#EEEEEE;rounded=1;sketch=1;fontStyle=1" vertex="1" parent="1">
          <mxGeometry x="-829" y="119" width="120" height="60" as="geometry" />
        </mxCell>
        <mxCell id="dD3Mr5d20u4FOekaNQPi-16" value="cares about the data in/out." style="whiteSpace=wrap;html=1;fillColor=#990099;strokeColor=#BAC8D3;fontColor=#EEEEEE;rounded=1;sketch=1;fontStyle=1;" vertex="1" parent="1">
          <mxGeometry x="-615" y="98" width="120" height="60" as="geometry" />
        </mxCell>
        <mxCell id="dD3Mr5d20u4FOekaNQPi-18" value="handles where this data will come/go.&lt;br&gt;we can call services/workers&lt;br&gt;here we can have middlewares to handle different things." style="whiteSpace=wrap;html=1;fillColor=#990099;strokeColor=#BAC8D3;fontColor=#EEEEEE;rounded=1;sketch=1;fontStyle=1;" vertex="1" parent="1">
          <mxGeometry x="-612" y="168" width="159" height="106" as="geometry" />
        </mxCell>
        <mxCell id="dD3Mr5d20u4FOekaNQPi-20" value="this is the format that the data should be." style="whiteSpace=wrap;html=1;fillColor=#990099;strokeColor=#BAC8D3;fontColor=#EEEEEE;rounded=1;sketch=1;fontStyle=1;" vertex="1" parent="1">
          <mxGeometry x="-582" y="288" width="120" height="60" as="geometry" />
        </mxCell>
        <mxCell id="dD3Mr5d20u4FOekaNQPi-24" value="this is the methods to handle data through" style="whiteSpace=wrap;html=1;fillColor=#990099;strokeColor=#BAC8D3;fontColor=#EEEEEE;rounded=1;sketch=1;fontStyle=1;" vertex="1" parent="1">
          <mxGeometry x="-577" y="363" width="120" height="60" as="geometry" />
        </mxCell>
        <mxCell id="dD3Mr5d20u4FOekaNQPi-26" value="this is where we will define bussiness rules and the shape of entities" style="whiteSpace=wrap;html=1;fillColor=#990099;strokeColor=#BAC8D3;fontColor=#EEEEEE;rounded=1;sketch=1;fontStyle=1;" vertex="1" parent="1">
          <mxGeometry x="-530" y="442" width="120" height="60" as="geometry" />
        </mxCell>
        <mxCell id="dD3Mr5d20u4FOekaNQPi-33" value="" style="edgeStyle=orthogonalEdgeStyle;curved=1;orthogonalLoop=1;jettySize=auto;html=1;strokeColor=#E6D0DE;" edge="1" parent="1" source="dD3Mr5d20u4FOekaNQPi-28" target="dD3Mr5d20u4FOekaNQPi-32">
          <mxGeometry relative="1" as="geometry">
            <Array as="points">
              <mxPoint x="-487" y="543" />
              <mxPoint x="-468" y="543" />
            </Array>
          </mxGeometry>
        </mxCell>
        <mxCell id="dD3Mr5d20u4FOekaNQPi-28" value="" style="ellipse;whiteSpace=wrap;html=1;fillColor=none;sketch=1;strokeColor=#E6D0DE;rotation=-30;" vertex="1" parent="1">
          <mxGeometry x="-487" y="481" width="50" height="28" as="geometry" />
        </mxCell>
        <mxCell id="dD3Mr5d20u4FOekaNQPi-32" value="entities means:&lt;br&gt;users, categories,&lt;br&gt;posts, comments etc..." style="ellipse;shape=cloud;whiteSpace=wrap;html=1;fillColor=none;strokeColor=#E6D0DE;sketch=1;fontFamily=Architects Daughter;fontSource=https%3A%2F%2Ffonts.googleapis.com%2Fcss%3Ffamily%3DArchitects%2BDaughter;rotation=-30;" vertex="1" parent="1">
          <mxGeometry x="-489" y="569" width="194" height="117" as="geometry" />
        </mxCell>
        <mxCell id="wIqFN5VZQI76kB4jCGSw-18" value="" style="edgeStyle=orthogonalEdgeStyle;curved=1;orthogonalLoop=1;jettySize=auto;html=1;fontFamily=Architects Daughter;fontSource=https%3A%2F%2Ffonts.googleapis.com%2Fcss%3Ffamily%3DArchitects%2BDaughter;strokeColor=#E6D0DE;" edge="1" parent="1" source="wIqFN5VZQI76kB4jCGSw-4" target="wIqFN5VZQI76kB4jCGSw-17">
          <mxGeometry relative="1" as="geometry" />
        </mxCell>
        <mxCell id="wIqFN5VZQI76kB4jCGSw-4" value="workers" style="whiteSpace=wrap;html=1;fillColor=#CC00CC;strokeColor=#BAC8D3;fontColor=#EEEEEE;rounded=1;sketch=1;fontStyle=1;" vertex="1" parent="1">
          <mxGeometry x="-1005" y="196" width="120" height="60" as="geometry" />
        </mxCell>
        <mxCell id="wIqFN5VZQI76kB4jCGSw-8" value="" style="edgeStyle=orthogonalEdgeStyle;curved=1;orthogonalLoop=1;jettySize=auto;html=1;fontFamily=Architects Daughter;fontSource=https%3A%2F%2Ffonts.googleapis.com%2Fcss%3Ffamily%3DArchitects%2BDaughter;strokeColor=#E6D0DE;" edge="1" parent="1" source="wIqFN5VZQI76kB4jCGSw-6" target="wIqFN5VZQI76kB4jCGSw-7">
          <mxGeometry relative="1" as="geometry" />
        </mxCell>
        <mxCell id="wIqFN5VZQI76kB4jCGSw-6" value="" style="ellipse;whiteSpace=wrap;html=1;fillColor=none;sketch=1;strokeColor=#E6D0DE;rotation=-30;" vertex="1" parent="1">
          <mxGeometry x="-808.63" y="123.99" width="82" height="41.95" as="geometry" />
        </mxCell>
        <mxCell id="wIqFN5VZQI76kB4jCGSw-7" value="accepts an HTTP request, returns a http response" style="whiteSpace=wrap;html=1;fillColor=none;strokeColor=#E6D0DE;sketch=1;rounded=1;fontFamily=Architects Daughter;fontSource=https%3A%2F%2Ffonts.googleapis.com%2Fcss%3Ffamily%3DArchitects%2BDaughter;" vertex="1" parent="1">
          <mxGeometry x="-634" y="-73.005" width="120" height="60" as="geometry" />
        </mxCell>
        <mxCell id="wIqFN5VZQI76kB4jCGSw-14" value="" style="edgeStyle=orthogonalEdgeStyle;curved=1;orthogonalLoop=1;jettySize=auto;html=1;fontFamily=Architects Daughter;fontSource=https%3A%2F%2Ffonts.googleapis.com%2Fcss%3Ffamily%3DArchitects%2BDaughter;strokeColor=#E6D0DE;entryX=0.4;entryY=0.1;entryDx=0;entryDy=0;entryPerimeter=0;" edge="1" parent="1" source="wIqFN5VZQI76kB4jCGSw-9" target="wIqFN5VZQI76kB4jCGSw-13">
          <mxGeometry relative="1" as="geometry" />
        </mxCell>
        <mxCell id="wIqFN5VZQI76kB4jCGSw-9" value="index.ts" style="whiteSpace=wrap;html=1;fillColor=#990099;strokeColor=#BAC8D3;fontColor=#EEEEEE;rounded=1;sketch=1;fontStyle=1;" vertex="1" parent="1">
          <mxGeometry x="-672" y="531" width="120" height="60" as="geometry" />
        </mxCell>
        <mxCell id="wIqFN5VZQI76kB4jCGSw-11" value="" style="ellipse;whiteSpace=wrap;html=1;fillColor=none;sketch=1;strokeColor=#E6D0DE;rotation=-30;" vertex="1" parent="1">
          <mxGeometry x="-640.48" y="543.18" width="58.8" height="33.47" as="geometry" />
        </mxCell>
        <mxCell id="wIqFN5VZQI76kB4jCGSw-13" value="these are the routes for&lt;br&gt;this particular Entity." style="ellipse;shape=cloud;whiteSpace=wrap;html=1;fillColor=#990099;strokeColor=#BAC8D3;fontColor=#EEEEEE;rounded=1;sketch=1;fontStyle=1;rotation=26;" vertex="1" parent="1">
          <mxGeometry x="-892" y="692" width="205" height="120" as="geometry" />
        </mxCell>
        <mxCell id="wIqFN5VZQI76kB4jCGSw-17" value="EmailService etc.." style="whiteSpace=wrap;html=1;fillColor=#CC00CC;strokeColor=#BAC8D3;fontColor=#EEEEEE;rounded=1;sketch=1;fontStyle=1;" vertex="1" parent="1">
          <mxGeometry x="-1073" y="298" width="120" height="60" as="geometry" />
        </mxCell>
        <mxCell id="wIqFN5VZQI76kB4jCGSw-19" value="DB" style="rounded=1;whiteSpace=wrap;html=1;fillColor=#CC00CC;strokeColor=#BAC8D3;fontColor=#EEEEEE;sketch=1;fontStyle=1" vertex="1" parent="1">
          <mxGeometry x="-1197" y="-149" width="120" height="60" as="geometry" />
        </mxCell>
        <mxCell id="wIqFN5VZQI76kB4jCGSw-2" value="entry.ts" style="whiteSpace=wrap;html=1;fillColor=#CC00CC;strokeColor=#BAC8D3;fontColor=#EEEEEE;rounded=1;sketch=1;fontStyle=1;" vertex="1" parent="1">
          <mxGeometry x="-1005" y="105.94" width="120" height="60" as="geometry" />
        </mxCell>
        <mxCell id="wIqFN5VZQI76kB4jCGSw-20" value="" style="edgeStyle=orthogonalEdgeStyle;curved=1;orthogonalLoop=1;jettySize=auto;html=1;fontFamily=Architects Daughter;fontSource=https%3A%2F%2Ffonts.googleapis.com%2Fcss%3Ffamily%3DArchitects%2BDaughter;strokeColor=#E6D0DE;endArrow=none;" edge="1" parent="1" source="dD3Mr5d20u4FOekaNQPi-1" target="wIqFN5VZQI76kB4jCGSw-2">
          <mxGeometry relative="1" as="geometry">
            <mxPoint x="-1075" y="-38.96551724137919" as="sourcePoint" />
            <mxPoint x="-919.9655172413793" y="192" as="targetPoint" />
          </mxGeometry>
        </mxCell>
        <mxCell id="dD3Mr5d20u4FOekaNQPi-4" value="Entity" style="whiteSpace=wrap;html=1;fillColor=#990099;strokeColor=#BAC8D3;fontColor=#EEEEEE;rounded=1;sketch=1;fontStyle=1" vertex="1" parent="1">
          <mxGeometry x="-1005" y="15" width="120" height="60" as="geometry" />
        </mxCell>
        <mxCell id="wIqFN5VZQI76kB4jCGSw-21" value="" style="edgeStyle=orthogonalEdgeStyle;curved=1;orthogonalLoop=1;jettySize=auto;html=1;fontFamily=Architects Daughter;fontSource=https%3A%2F%2Ffonts.googleapis.com%2Fcss%3Ffamily%3DArchitects%2BDaughter;strokeColor=#E6D0DE;endArrow=none;" edge="1" parent="1" source="dD3Mr5d20u4FOekaNQPi-1" target="dD3Mr5d20u4FOekaNQPi-4">
          <mxGeometry relative="1" as="geometry">
            <mxPoint x="-1075" y="-38.96551724137919" as="sourcePoint" />
            <mxPoint x="-923.9655172413793" y="104" as="targetPoint" />
          </mxGeometry>
        </mxCell>
        <mxCell id="wIqFN5VZQI76kB4jCGSw-28" value="entity are data that have entity.&lt;br&gt;you can swap data but cant swap an entity." style="text;html=1;strokeColor=none;fillColor=none;align=center;verticalAlign=middle;whiteSpace=wrap;rounded=0;sketch=1;fontFamily=Architects Daughter;fontSource=https%3A%2F%2Ffonts.googleapis.com%2Fcss%3Ffamily%3DArchitects%2BDaughter;" vertex="1" parent="1">
          <mxGeometry x="-1589" y="11" width="223" height="76" as="geometry" />
        </mxCell>
        <mxCell id="wIqFN5VZQI76kB4jCGSw-35" value="createController.ts" style="whiteSpace=wrap;html=1;fillColor=#990099;strokeColor=#BAC8D3;fontColor=#EEEEEE;rounded=1;sketch=1;fontStyle=1" vertex="1" parent="1">
          <mxGeometry x="-546" y="45.94" width="120" height="60" as="geometry" />
        </mxCell>
      </root>
    </mxGraphModel>
  </diagram>
  <diagram id="2-4FN4Ia7HqaHpQCbOEW" name="mail verification">
    <mxGraphModel dx="2222" dy="859" grid="0" gridSize="10" guides="1" tooltips="1" connect="1" arrows="1" fold="1" page="0" pageScale="1" pageWidth="850" pageHeight="1100" math="0" shadow="0">
      <root>
        <mxCell id="0" />
        <mxCell id="1" parent="0" />
        <mxCell id="PuLs2avBreGDwtAJt-fA-1" value="name" style="rounded=1;whiteSpace=wrap;html=1;sketch=1;hachureGap=4;fontFamily=Architects Daughter;fontSource=https%3A%2F%2Ffonts.googleapis.com%2Fcss%3Ffamily%3DArchitects%2BDaughter;fontSize=20;fontColor=#EEEEEE;strokeColor=#BAC8D3;fillColor=#09555B;" parent="1" vertex="1">
          <mxGeometry x="66" y="98" width="120" height="60" as="geometry" />
        </mxCell>
        <mxCell id="PuLs2avBreGDwtAJt-fA-2" value="email" style="rounded=1;whiteSpace=wrap;html=1;sketch=1;hachureGap=4;fontFamily=Architects Daughter;fontSource=https%3A%2F%2Ffonts.googleapis.com%2Fcss%3Ffamily%3DArchitects%2BDaughter;fontSize=20;fontColor=#EEEEEE;strokeColor=#BAC8D3;fillColor=#09555B;" parent="1" vertex="1">
          <mxGeometry x="223" y="98" width="120" height="60" as="geometry" />
        </mxCell>
        <mxCell id="PuLs2avBreGDwtAJt-fA-19" value="" style="edgeStyle=orthogonalEdgeStyle;curved=1;rounded=0;sketch=1;hachureGap=4;orthogonalLoop=1;jettySize=auto;html=1;fontFamily=Architects Daughter;fontSource=https%3A%2F%2Ffonts.googleapis.com%2Fcss%3Ffamily%3DArchitects%2BDaughter;fontSize=16;endArrow=classicThin;endFill=0;startSize=14;endSize=14;sourcePerimeterSpacing=8;targetPerimeterSpacing=8;strokeColor=#0B4D6A;" parent="1" source="PuLs2avBreGDwtAJt-fA-3" target="PuLs2avBreGDwtAJt-fA-18" edge="1">
          <mxGeometry relative="1" as="geometry" />
        </mxCell>
        <mxCell id="PuLs2avBreGDwtAJt-fA-3" value="verify" style="rounded=1;whiteSpace=wrap;html=1;sketch=1;hachureGap=4;fontFamily=Architects Daughter;fontSource=https%3A%2F%2Ffonts.googleapis.com%2Fcss%3Ffamily%3DArchitects%2BDaughter;fontSize=20;fontColor=#EEEEEE;strokeColor=#BAC8D3;fillColor=#09555B;" parent="1" vertex="1">
          <mxGeometry x="521" y="98" width="120" height="60" as="geometry" />
        </mxCell>
        <mxCell id="PuLs2avBreGDwtAJt-fA-11" style="edgeStyle=orthogonalEdgeStyle;curved=1;rounded=0;sketch=1;hachureGap=4;orthogonalLoop=1;jettySize=auto;html=1;fontFamily=Architects Daughter;fontSource=https%3A%2F%2Ffonts.googleapis.com%2Fcss%3Ffamily%3DArchitects%2BDaughter;fontSize=16;endArrow=classicThin;endFill=0;startSize=14;endSize=14;sourcePerimeterSpacing=8;targetPerimeterSpacing=8;strokeColor=#0B4D6A;" parent="1" source="PuLs2avBreGDwtAJt-fA-4" target="PuLs2avBreGDwtAJt-fA-5" edge="1">
          <mxGeometry relative="1" as="geometry" />
        </mxCell>
        <mxCell id="PuLs2avBreGDwtAJt-fA-16" style="edgeStyle=orthogonalEdgeStyle;curved=1;rounded=0;sketch=1;hachureGap=4;orthogonalLoop=1;jettySize=auto;html=1;fontFamily=Architects Daughter;fontSource=https%3A%2F%2Ffonts.googleapis.com%2Fcss%3Ffamily%3DArchitects%2BDaughter;fontSize=16;endArrow=classicThin;endFill=0;startSize=14;endSize=14;sourcePerimeterSpacing=8;targetPerimeterSpacing=8;strokeColor=#0B4D6A;exitX=0.574;exitY=1.024;exitDx=0;exitDy=0;exitPerimeter=0;" parent="1" source="PuLs2avBreGDwtAJt-fA-4" target="PuLs2avBreGDwtAJt-fA-7" edge="1">
          <mxGeometry relative="1" as="geometry">
            <Array as="points">
              <mxPoint x="442" y="210" />
              <mxPoint x="590" y="210" />
            </Array>
          </mxGeometry>
        </mxCell>
        <mxCell id="PuLs2avBreGDwtAJt-fA-4" value="password" style="rounded=1;whiteSpace=wrap;html=1;sketch=1;hachureGap=4;fontFamily=Architects Daughter;fontSource=https%3A%2F%2Ffonts.googleapis.com%2Fcss%3Ffamily%3DArchitects%2BDaughter;fontSize=20;fontColor=#EEEEEE;strokeColor=#BAC8D3;fillColor=#09555B;" parent="1" vertex="1">
          <mxGeometry x="373" y="98" width="120" height="60" as="geometry" />
        </mxCell>
        <mxCell id="PuLs2avBreGDwtAJt-fA-15" style="edgeStyle=orthogonalEdgeStyle;curved=1;rounded=0;sketch=1;hachureGap=4;orthogonalLoop=1;jettySize=auto;html=1;entryX=0.5;entryY=0;entryDx=0;entryDy=0;fontFamily=Architects Daughter;fontSource=https%3A%2F%2Ffonts.googleapis.com%2Fcss%3Ffamily%3DArchitects%2BDaughter;fontSize=16;endArrow=classicThin;endFill=0;startSize=14;endSize=14;sourcePerimeterSpacing=8;targetPerimeterSpacing=8;strokeColor=#0B4D6A;" parent="1" source="PuLs2avBreGDwtAJt-fA-5" target="PuLs2avBreGDwtAJt-fA-13" edge="1">
          <mxGeometry relative="1" as="geometry" />
        </mxCell>
        <mxCell id="PuLs2avBreGDwtAJt-fA-5" value="Register" style="rounded=1;whiteSpace=wrap;html=1;sketch=1;hachureGap=4;fontFamily=Architects Daughter;fontSource=https%3A%2F%2Ffonts.googleapis.com%2Fcss%3Ffamily%3DArchitects%2BDaughter;fontSize=20;fontColor=#EEEEEE;strokeColor=#BAC8D3;fillColor=#09555B;" parent="1" vertex="1">
          <mxGeometry x="345" y="325" width="176" height="60" as="geometry" />
        </mxCell>
        <mxCell id="PuLs2avBreGDwtAJt-fA-14" style="edgeStyle=orthogonalEdgeStyle;curved=1;rounded=0;sketch=1;hachureGap=4;orthogonalLoop=1;jettySize=auto;html=1;fontFamily=Architects Daughter;fontSource=https%3A%2F%2Ffonts.googleapis.com%2Fcss%3Ffamily%3DArchitects%2BDaughter;fontSize=16;endArrow=classicThin;endFill=0;startSize=14;endSize=14;sourcePerimeterSpacing=8;targetPerimeterSpacing=8;strokeColor=#0B4D6A;" parent="1" source="PuLs2avBreGDwtAJt-fA-7" target="PuLs2avBreGDwtAJt-fA-13" edge="1">
          <mxGeometry relative="1" as="geometry" />
        </mxCell>
        <mxCell id="PuLs2avBreGDwtAJt-fA-7" value="sendEmailToken" style="rounded=1;whiteSpace=wrap;html=1;sketch=1;hachureGap=4;fontFamily=Architects Daughter;fontSource=https%3A%2F%2Ffonts.googleapis.com%2Fcss%3Ffamily%3DArchitects%2BDaughter;fontSize=20;fontColor=#EEEEEE;strokeColor=#BAC8D3;fillColor=#09555B;" parent="1" vertex="1">
          <mxGeometry x="536" y="329" width="202" height="60" as="geometry" />
        </mxCell>
        <mxCell id="PuLs2avBreGDwtAJt-fA-13" value="register" style="rounded=1;whiteSpace=wrap;html=1;sketch=1;hachureGap=4;fontFamily=Architects Daughter;fontSource=https%3A%2F%2Ffonts.googleapis.com%2Fcss%3Ffamily%3DArchitects%2BDaughter;fontSize=20;fontColor=#EEEEEE;strokeColor=#BAC8D3;fillColor=#09555B;" parent="1" vertex="1">
          <mxGeometry x="439" y="457" width="202" height="60" as="geometry" />
        </mxCell>
        <mxCell id="PuLs2avBreGDwtAJt-fA-18" value="verifyEmail" style="rounded=1;whiteSpace=wrap;html=1;sketch=1;hachureGap=4;fontFamily=Architects Daughter;fontSource=https%3A%2F%2Ffonts.googleapis.com%2Fcss%3Ffamily%3DArchitects%2BDaughter;fontSize=20;fontColor=#EEEEEE;strokeColor=#BAC8D3;fillColor=#09555B;" parent="1" vertex="1">
          <mxGeometry x="757" y="325" width="120" height="60" as="geometry" />
        </mxCell>
        <mxCell id="NrXwMs6YppR9WANtqzq4-1" value="Token" style="swimlane;fontStyle=0;childLayout=stackLayout;horizontal=1;startSize=30;horizontalStack=0;resizeParent=1;resizeParentMax=0;resizeLast=0;collapsible=1;marginBottom=0;sketch=1;hachureGap=4;fontFamily=Architects Daughter;fontSource=https%3A%2F%2Ffonts.googleapis.com%2Fcss%3Ffamily%3DArchitects%2BDaughter;fontSize=20;fontColor=#EEEEEE;strokeColor=#BAC8D3;fillColor=#09555B;" parent="1" vertex="1">
          <mxGeometry x="-470" y="169" width="140" height="120" as="geometry" />
        </mxCell>
        <mxCell id="NrXwMs6YppR9WANtqzq4-2" value="uuid" style="text;strokeColor=none;fillColor=none;align=left;verticalAlign=middle;spacingLeft=4;spacingRight=4;overflow=hidden;points=[[0,0.5],[1,0.5]];portConstraint=eastwest;rotatable=0;fontSize=16;sketch=1;hachureGap=4;fontFamily=Architects Daughter;fontSource=https%3A%2F%2Ffonts.googleapis.com%2Fcss%3Ffamily%3DArchitects%2BDaughter;fontColor=#EEEEEE;" parent="NrXwMs6YppR9WANtqzq4-1" vertex="1">
          <mxGeometry y="30" width="140" height="30" as="geometry" />
        </mxCell>
        <mxCell id="NrXwMs6YppR9WANtqzq4-3" value="status" style="text;strokeColor=none;fillColor=none;align=left;verticalAlign=middle;spacingLeft=4;spacingRight=4;overflow=hidden;points=[[0,0.5],[1,0.5]];portConstraint=eastwest;rotatable=0;fontSize=16;sketch=1;hachureGap=4;fontFamily=Architects Daughter;fontSource=https%3A%2F%2Ffonts.googleapis.com%2Fcss%3Ffamily%3DArchitects%2BDaughter;fontColor=#EEEEEE;" parent="NrXwMs6YppR9WANtqzq4-1" vertex="1">
          <mxGeometry y="60" width="140" height="30" as="geometry" />
        </mxCell>
        <mxCell id="NrXwMs6YppR9WANtqzq4-4" value="token" style="text;strokeColor=none;fillColor=none;align=left;verticalAlign=middle;spacingLeft=4;spacingRight=4;overflow=hidden;points=[[0,0.5],[1,0.5]];portConstraint=eastwest;rotatable=0;fontSize=16;sketch=1;hachureGap=4;fontFamily=Architects Daughter;fontSource=https%3A%2F%2Ffonts.googleapis.com%2Fcss%3Ffamily%3DArchitects%2BDaughter;fontColor=#EEEEEE;" parent="NrXwMs6YppR9WANtqzq4-1" vertex="1">
          <mxGeometry y="90" width="140" height="30" as="geometry" />
        </mxCell>
        <mxCell id="NrXwMs6YppR9WANtqzq4-22" value="Identity" style="swimlane;fontStyle=0;childLayout=stackLayout;horizontal=1;startSize=30;horizontalStack=0;resizeParent=1;resizeParentMax=0;resizeLast=0;collapsible=1;marginBottom=0;sketch=1;hachureGap=4;fontFamily=Architects Daughter;fontSource=https%3A%2F%2Ffonts.googleapis.com%2Fcss%3Ffamily%3DArchitects%2BDaughter;fontSize=20;fontColor=#EEEEEE;strokeColor=#BAC8D3;fillColor=#09555B;" parent="1" vertex="1">
          <mxGeometry x="-224" y="184" width="140" height="120" as="geometry" />
        </mxCell>
        <mxCell id="NrXwMs6YppR9WANtqzq4-23" value="uuid" style="text;strokeColor=none;fillColor=none;align=left;verticalAlign=middle;spacingLeft=4;spacingRight=4;overflow=hidden;points=[[0,0.5],[1,0.5]];portConstraint=eastwest;rotatable=0;fontSize=16;sketch=1;hachureGap=4;fontFamily=Architects Daughter;fontSource=https%3A%2F%2Ffonts.googleapis.com%2Fcss%3Ffamily%3DArchitects%2BDaughter;fontColor=#EEEEEE;" parent="NrXwMs6YppR9WANtqzq4-22" vertex="1">
          <mxGeometry y="30" width="140" height="30" as="geometry" />
        </mxCell>
        <mxCell id="NrXwMs6YppR9WANtqzq4-24" value="status" style="text;strokeColor=none;fillColor=none;align=left;verticalAlign=middle;spacingLeft=4;spacingRight=4;overflow=hidden;points=[[0,0.5],[1,0.5]];portConstraint=eastwest;rotatable=0;fontSize=16;sketch=1;hachureGap=4;fontFamily=Architects Daughter;fontSource=https%3A%2F%2Ffonts.googleapis.com%2Fcss%3Ffamily%3DArchitects%2BDaughter;fontColor=#EEEEEE;" parent="NrXwMs6YppR9WANtqzq4-22" vertex="1">
          <mxGeometry y="60" width="140" height="30" as="geometry" />
        </mxCell>
        <mxCell id="NrXwMs6YppR9WANtqzq4-25" value="token" style="text;strokeColor=none;fillColor=none;align=left;verticalAlign=middle;spacingLeft=4;spacingRight=4;overflow=hidden;points=[[0,0.5],[1,0.5]];portConstraint=eastwest;rotatable=0;fontSize=16;sketch=1;hachureGap=4;fontFamily=Architects Daughter;fontSource=https%3A%2F%2Ffonts.googleapis.com%2Fcss%3Ffamily%3DArchitects%2BDaughter;fontColor=#EEEEEE;" parent="NrXwMs6YppR9WANtqzq4-22" vertex="1">
          <mxGeometry y="90" width="140" height="30" as="geometry" />
        </mxCell>
        <mxCell id="NrXwMs6YppR9WANtqzq4-26" style="edgeStyle=orthogonalEdgeStyle;curved=1;rounded=0;sketch=1;hachureGap=4;orthogonalLoop=1;jettySize=auto;html=1;fontFamily=Architects Daughter;fontSource=https%3A%2F%2Ffonts.googleapis.com%2Fcss%3Ffamily%3DArchitects%2BDaughter;fontSize=16;endArrow=classicThin;endFill=0;startSize=14;endSize=14;sourcePerimeterSpacing=8;targetPerimeterSpacing=8;strokeColor=#0B4D6A;" parent="1" source="NrXwMs6YppR9WANtqzq4-2" target="NrXwMs6YppR9WANtqzq4-23" edge="1">
          <mxGeometry relative="1" as="geometry" />
        </mxCell>
        <mxCell id="NrXwMs6YppR9WANtqzq4-27" style="edgeStyle=orthogonalEdgeStyle;curved=1;rounded=0;sketch=1;hachureGap=4;orthogonalLoop=1;jettySize=auto;html=1;fontFamily=Architects Daughter;fontSource=https%3A%2F%2Ffonts.googleapis.com%2Fcss%3Ffamily%3DArchitects%2BDaughter;fontSize=16;endArrow=classicThin;endFill=0;startSize=14;endSize=14;sourcePerimeterSpacing=8;targetPerimeterSpacing=8;strokeColor=#0B4D6A;" parent="1" source="NrXwMs6YppR9WANtqzq4-23" target="NrXwMs6YppR9WANtqzq4-2" edge="1">
          <mxGeometry relative="1" as="geometry" />
        </mxCell>
      </root>
    </mxGraphModel>
  </diagram>
</mxfile>
